<svg xmlns="http://www.w3.org/2000/svg" viewBox="0 0 4096 4096" width="4096" height="4096"><defs></defs><g>
<rect fill="#ffffff" x="0" y="0" width="4096" height="4096"/>
<g>
	<g>
		<path d="M2048.0000000000005,358.60728744939183 C2980.181182476223,358.60728744939183 3737.392712550608,1115.818817523777 3737.392712550608,2048 C3737.392712550608,2980.181182476223 2980.181182476223,3737.392712550608 2048.0000000000005,3737.392712550608 C1115.8188175237779,3737.392712550608 358.60728744939297,2980.181182476223 358.60728744939297,2048 C358.60728744939297,1115.818817523777 1115.8188175237779,358.60728744939183 2048.0000000000005,358.60728744939183 Z" transform="matrix(1,0,0,1,0,0)" fill="#000000" stroke="#000000" stroke-width="2"/>
	</g>
	<g>
		<path d="M2048.0000000000005,526.402529666886 C2713.7232643056436,526.402529666886 3254.4908114813215,1067.1700768425692 3254.4908114813215,1732.8933411482185 C3254.4908114813215,2398.616605453868 2713.7232643056436,2939.384152629551 2048.0000000000005,2939.384152629551 C1382.2767356943573,2939.384152629551 841.5091885186791,2398.616605453868 841.5091885186791,1732.8933411482185 C841.5091885186791,1067.1700768425692 1382.2767356943573,526.402529666886 2048.0000000000005,526.402529666886 Z" fill="#fefefe" stroke="#000000" stroke-width="2"/>
	</g>
	<g>
		<g transform="matrix(1,0,0,1,0,-315.106658852)">
			<path d="M2696.0298531564404,3044.7723397432806 C2562.2160942432874,3090.3958146055797 2428.4023353301345,3136.0192894678785 2353.561163957995,3215.3689332861754 C2278.719992585856,3294.7185771044724 2262.85140875473,3407.7943898787685 2246.9828249236043,3520.8702026530646" fill="none" stroke="#ffffff" stroke-width="300" stroke-linecap="round"/>
		</g>
		<g transform="matrix(1,0,0,1,0,-315.106658852)">
			<path d="M3020.7532712323473,1833.6964800986916 C3050.9736486889647,1958.892547249027 3081.194026145581,2084.0886143993625 3050.7918464296126,2271.767732215292 C3020.389666713644,2459.446850031222 2929.364929825092,2709.6090185127455 2876.564438825587,2924.5492175321215 C2823.7639478260817,3139.4894165514975 2809.1877027156233,3319.2076461087267 2683.873712760334,3449.221251141644 C2558.5597228050447,3579.2348561745616 2322.5079880049243,3659.543836683167 2343.697041706435,3737.6327502301197 C2364.8860954079455,3815.7216637770725 2643.3159376110884,3891.5905103623754 2921.7457798142304,3967.459356947678" fill="none" stroke="#ffffff" stroke-width="400" stroke-linecap="round"/>
		</g>
		<g transform="matrix(1,0,0,1,0,-315.106658852)">
			<path d="M2980.4352090906427,2077.930894995557 C2910.926722482903,2240.7581308739313 2841.418235875164,2403.585366752305 2817.9642518298356,2624.0487030216336 C2794.510267784507,2844.512039290962 2817.110786301587,3122.611475951242 2927.299614455737,3254.4908114813325 C3037.488442609887,3386.370147011423 3235.2655804011097,3372.029381411324 3325.9279213857913,3297.454592875457 C3416.590262370473,3222.87980433959 3400.137806548614,3088.070992867954 3383.6853507267547,2953.2621813963174" fill="none" stroke="#ffffff" stroke-width="500" stroke-linecap="round"/>
		</g>
		<g transform="matrix(1,0,0,1,0,-315.106658852)">
			<path d="M2473.328755867811,3091.9542278053573 C2469.3461927068106,3112.0854933753862 2465.36362954581,3132.216758945416 2463.3250860609223,3155.5852515272295 C2461.2865425760347,3178.953744109043 2461.192018767261,3205.5594637026406 2464.7575646610308,3231.6473663441216 C2468.3231105548007,3257.7352689856025 2475.548726151114,3283.305354674966 2487.0062538022994,3304.935194201708 C2498.463781453485,3326.5650337284496 2514.1532211595427,3344.2546270925723 2542.557469638154,3356.0199806236265 C2570.9617181167655,3367.7853341546806 2612.0807753679314,3373.6264478526678 2643.1917073709496,3369.5588447846258 C2674.302639373968,3365.4912417165838 2695.4054461288397,3351.5149218825145 2713.9566983980308,3333.1295298771934 C2732.507950667222,3314.744137871872 2748.5076484507313,3291.9496736952956 2757.2252333455567,3262.0853870117394 C2765.942818240382,3232.221100328183 2767.3782902465246,3195.286991137647 2773.2379418011565,3164.5814542042954 C2779.0975933557884,3133.875917270944 2789.381424458909,3109.398952594777 2799.665255562029,3084.9219879186094" transform="matrix(1,0,0,1,-365.028478844,298.021816985)" fill="none" stroke="#000000" stroke-width="12.5" stroke-linecap="round"/>
		</g>
		<g transform="matrix(1,0,0,1,0,-315.106658852)">
			<path d="M2591.3851521972033,3160.311030257581 C2595.703485756557,3179.985004888352 2600.02181931591,3199.658979519123 2591.3851521972033,3222.5162399554356 C2582.7484850784967,3245.373500391748 2561.1568172817306,3271.414046633602 2539.5651494849644,3297.454592875457" fill="none" stroke="#000000" stroke-width="12.5" stroke-linecap="round"/>
		</g>
		<g transform="matrix(1,0,0,1,0,-315.106658852)">
			<path d="M2794.75836576246,3095.688043749739 C2742.24715764141,3113.954587886953 2689.73594952036,3132.2211320241663 2645.1493633120376,3167.174210647175 C2600.5627771037152,3202.127289270184 2563.900812808119,3253.766902378987 2527.238848512522,3305.4065154877903" transform="matrix(1,0,0,1,-380.877722669,-50.915704006)" fill="none" stroke="#000000" stroke-width="12.5" stroke-linecap="round"/>
		</g>
		<g transform="matrix(1,0,0,1,0,-315.106658852)">
			<path d="M2591.3851521972033,3160.311030257581 C2606.598300274603,3195.098812249636 2621.811448352003,3229.8865942416905 2643.682206848167,3271.883919366543 C2665.552965344331,3313.8812444913956 2694.0813342592587,3363.0881127490456 2724.2098859404805,3402.442745965024 C2754.3384376217023,3441.7973791810027 2786.067172069218,3471.299777355311 2813.4057333067262,3494.440401754199 C2840.7442945442344,3517.5810261530864 2863.6926825717364,3534.35987677655 2886.641070599238,3551.138727400014" fill="none" stroke="#000000" stroke-width="12.5" stroke-linecap="round"/>
		</g>
		<g transform="matrix(1,0,0,1,0,-315.106658852)">
			<path d="M3140.3477958091894,3099.7032076035694 C3128.317938753634,3097.279972863389 3116.2880816980787,3094.8567381232083 3103.088183356797,3068.2924763092533 C3089.888285015515,3041.7282144952983 3075.518345388507,2991.022925607569 3063.427206729454,2949.2107727572943 C3051.3360680704013,2907.3986199070196 3041.5237303793047,2874.4796030942016 3040.59775541218,2843.935668676868 C3039.6717804450554,2813.391734259534 3047.6321682019043,2785.2228822376865 3055.5925559587527,2757.0540302158392" fill="none" stroke="#000000" stroke-width="12.5" stroke-linecap="round"/>
		</g>
		<g transform="matrix(1,0,0,1,0,-315.106658852)">
			<path d="M2781.726967307188,3278.04208318998 C2799.4644806537285,3274.0089894531884 2817.201994000269,3269.975895716397 2857.4439446065426,3274.448011117689 C2897.685895212816,3278.920126518981 2960.4322830788233,3291.8974510583553 3023.1786709448293,3304.8747755977297" transform="matrix(1,0,0,1,-295.255918402,390.827697142)" fill="none" stroke="#000000" stroke-width="12.5" stroke-linecap="round"/>
		</g>
		<g transform="matrix(1,0,0,1,0,-315.106658852)">
			<path d="M3030.785465276523,2716.4571869256015 C3033.797082797563,2751.9385211222975 3036.808700318602,2787.4198553189935 3047.306338534795,2820.228922079117 C3057.803976750988,2853.037988839241 3075.787635662335,2883.174788162794 3093.7712945736816,2913.3115874863474" transform="matrix(1,0,0,1,108.379808805,369.509683712)" fill="none" stroke="#000000" stroke-width="12.5" stroke-linecap="round"/>
		</g>
		<g transform="matrix(-1,0,0,1,4093.761982036,-315.106658852)">
			<path d="M2696.0298531564404,3044.7723397432806 C2562.2160942432874,3090.3958146055797 2428.4023353301345,3136.0192894678785 2353.561163957995,3215.3689332861754 C2278.719992585856,3294.7185771044724 2262.85140875473,3407.7943898787685 2246.9828249236043,3520.8702026530646" fill="none" stroke="#ffffff" stroke-width="300" stroke-linecap="round"/>
		</g>
		<g transform="matrix(-1,0,0,1,4093.761982036,-315.106658852)">
			<path d="M3020.7532712323473,1833.6964800986916 C3050.9736486889647,1958.892547249027 3081.194026145581,2084.0886143993625 3050.7918464296126,2271.767732215292 C3020.389666713644,2459.446850031222 2929.364929825092,2709.6090185127455 2876.564438825587,2924.5492175321215 C2823.7639478260817,3139.4894165514975 2809.1877027156233,3319.2076461087267 2683.873712760334,3449.221251141644 C2558.5597228050447,3579.2348561745616 2322.5079880049243,3659.543836683167 2343.697041706435,3737.6327502301197 C2364.8860954079455,3815.7216637770725 2643.3159376110884,3891.5905103623754 2921.7457798142304,3967.459356947678" fill="none" stroke="#ffffff" stroke-width="400" stroke-linecap="round"/>
		</g>
		<g transform="matrix(-1,0,0,1,4093.761982036,-315.106658852)">
			<path d="M2980.4352090906427,2077.930894995557 C2910.926722482903,2240.7581308739313 2841.418235875164,2403.585366752305 2817.9642518298356,2624.0487030216336 C2794.510267784507,2844.512039290962 2817.110786301587,3122.611475951242 2927.299614455737,3254.4908114813325 C3037.488442609887,3386.370147011423 3235.2655804011097,3372.029381411324 3325.9279213857913,3297.454592875457 C3416.590262370473,3222.87980433959 3400.137806548614,3088.070992867954 3383.6853507267547,2953.2621813963174" fill="none" stroke="#ffffff" stroke-width="500" stroke-linecap="round"/>
		</g>
		<g transform="matrix(-1,0,0,1,4093.761982036,-315.106658852)">
			<path d="M2473.328755867811,3091.9542278053573 C2469.3461927068106,3112.0854933753862 2465.36362954581,3132.216758945416 2463.3250860609223,3155.5852515272295 C2461.2865425760347,3178.953744109043 2461.192018767261,3205.5594637026406 2464.7575646610308,3231.6473663441216 C2468.3231105548007,3257.7352689856025 2475.548726151114,3283.305354674966 2487.0062538022994,3304.935194201708 C2498.463781453485,3326.5650337284496 2514.1532211595427,3344.2546270925723 2542.557469638154,3356.0199806236265 C2570.9617181167655,3367.7853341546806 2612.0807753679314,3373.6264478526678 2643.1917073709496,3369.5588447846258 C2674.302639373968,3365.4912417165838 2695.4054461288397,3351.5149218825145 2713.9566983980308,3333.1295298771934 C2732.507950667222,3314.744137871872 2748.5076484507313,3291.9496736952956 2757.2252333455567,3262.0853870117394 C2765.942818240382,3232.221100328183 2767.3782902465246,3195.286991137647 2773.2379418011565,3164.5814542042954 C2779.0975933557884,3133.875917270944 2789.381424458909,3109.398952594777 2799.665255562029,3084.9219879186094" transform="matrix(1,0,0,1,-365.028478844,298.021816985)" fill="none" stroke="#000000" stroke-width="12.5" stroke-linecap="round"/>
		</g>
		<g transform="matrix(-1,0,0,1,4093.761982036,-315.106658852)">
			<path d="M2591.3851521972033,3160.311030257581 C2595.703485756557,3179.985004888352 2600.02181931591,3199.658979519123 2591.3851521972033,3222.5162399554356 C2582.7484850784967,3245.373500391748 2561.1568172817306,3271.414046633602 2539.5651494849644,3297.454592875457" fill="none" stroke="#000000" stroke-width="12.5" stroke-linecap="round"/>
		</g>
		<g transform="matrix(-1,0,0,1,4093.761982036,-315.106658852)">
			<path d="M2794.75836576246,3095.688043749739 C2742.24715764141,3113.954587886953 2689.73594952036,3132.2211320241663 2645.1493633120376,3167.174210647175 C2600.5627771037152,3202.127289270184 2563.900812808119,3253.766902378987 2527.238848512522,3305.4065154877903" transform="matrix(1,0,0,1,-380.877722669,-50.915704006)" fill="none" stroke="#000000" stroke-width="12.5" stroke-linecap="round"/>
		</g>
		<g transform="matrix(-1,0,0,1,4093.761982036,-315.106658852)">
			<path d="M2591.3851521972033,3160.311030257581 C2606.598300274603,3195.098812249636 2621.811448352003,3229.8865942416905 2643.682206848167,3271.883919366543 C2665.552965344331,3313.8812444913956 2694.0813342592587,3363.0881127490456 2724.2098859404805,3402.442745965024 C2754.3384376217023,3441.7973791810027 2786.067172069218,3471.299777355311 2813.4057333067262,3494.440401754199 C2840.7442945442344,3517.5810261530864 2863.6926825717364,3534.35987677655 2886.641070599238,3551.138727400014" fill="none" stroke="#000000" stroke-width="12.5" stroke-linecap="round"/>
		</g>
		<g transform="matrix(-1,0,0,1,4093.761982036,-315.106658852)">
			<path d="M3140.3477958091894,3099.7032076035694 C3128.317938753634,3097.279972863389 3116.2880816980787,3094.8567381232083 3103.088183356797,3068.2924763092533 C3089.888285015515,3041.7282144952983 3075.518345388507,2991.022925607569 3063.427206729454,2949.2107727572943 C3051.3360680704013,2907.3986199070196 3041.5237303793047,2874.4796030942016 3040.59775541218,2843.935668676868 C3039.6717804450554,2813.391734259534 3047.6321682019043,2785.2228822376865 3055.5925559587527,2757.0540302158392" fill="none" stroke="#000000" stroke-width="12.5" stroke-linecap="round"/>
		</g>
		<g transform="matrix(-1,0,0,1,4093.761982036,-315.106658852)">
			<path d="M2781.726967307188,3278.04208318998 C2799.4644806537285,3274.0089894531884 2817.201994000269,3269.975895716397 2857.4439446065426,3274.448011117689 C2897.685895212816,3278.920126518981 2960.4322830788233,3291.8974510583553 3023.1786709448293,3304.8747755977297" transform="matrix(1,0,0,1,-295.255918402,390.827697142)" fill="none" stroke="#000000" stroke-width="12.5" stroke-linecap="round"/>
		</g>
		<g transform="matrix(-1,0,0,1,4093.761982036,-315.106658852)">
			<path d="M3030.785465276523,2716.4571869256015 C3033.797082797563,2751.9385211222975 3036.808700318602,2787.4198553189935 3047.306338534795,2820.228922079117 C3057.803976750988,2853.037988839241 3075.787635662335,2883.174788162794 3093.7712945736816,2913.3115874863474" transform="matrix(1,0,0,1,108.379808805,369.509683712)" fill="none" stroke="#000000" stroke-width="12.5" stroke-linecap="round"/>
		</g>
	</g>
	<g>
		<path d="M1592.4887765628462,874.2300339568524 C1777.0153500604436,874.2300339568524 1926.906435274517,1024.1211191709258 1926.906435274517,1208.6476926685232 C1926.906435274517,1393.1742661661206 1777.0153500604436,1543.065351380194 1592.4887765628462,1543.065351380194 C1407.9622030652488,1543.065351380194 1258.0711178511754,1393.1742661661206 1258.0711178511754,1208.6476926685232 C1258.0711178511754,1024.1211191709258 1407.9622030652488,874.2300339568524 1592.4887765628462,874.2300339568524 Z" fill="#000000" stroke="#000000" stroke-width="2"/>
	</g>
	<g>
		<path d="M2525.396505438935,874.2300339568524 C2709.9230789365324,874.2300339568524 2859.814164150606,1024.1211191709258 2859.814164150606,1208.6476926685232 C2859.814164150606,1393.1742661661206 2709.9230789365324,1543.065351380194 2525.396505438935,1543.065351380194 C2340.8699319413377,1543.065351380194 2190.978846727264,1393.1742661661206 2190.978846727264,1208.6476926685232 C2190.978846727264,1024.1211191709258 2340.8699319413377,874.2300339568524 2525.396505438935,874.2300339568524 Z" fill="#000000" stroke="#000000" stroke-width="2"/>
	</g>
	<g>
		<path d="M1926.906435274517,1543.065351380194 C1965.4471833495302,1554.0456184387044 2003.9879314245431,1565.0258854972149 2048.0000000000005,1565.0258854972146 C2092.0120685754578,1565.0258854972144 2141.4954576513614,1554.045618438704 2190.978846727264,1543.065351380194" fill="none" stroke="#000000" stroke-width="75" stroke-linecap="round"/>
	</g>
	<g>
		<path d="M1739.6976059186813,1041.4388633126878 C1831.96089266748,1041.4388633126878 1906.9064352745168,1116.3844059197245 1906.9064352745168,1208.6476926685232 C1906.9064352745168,1300.9109794173219 1831.96089266748,1375.8565220243586 1739.6976059186813,1375.8565220243586 C1647.4343191698827,1375.8565220243586 1572.488776562846,1300.9109794173219 1572.488776562846,1208.6476926685232 C1572.488776562846,1116.3844059197245 1647.4343191698827,1041.4388633126878 1739.6976059186813,1041.4388633126878 Z" fill="#ffffff" stroke="#ffffff" stroke-width="2"/>
	</g>
	<g>
		<path d="M2378.1876760830983,1041.4388633126878 C2470.450962831897,1041.4388633126878 2545.3965054389337,1116.3844059197245 2545.3965054389337,1208.6476926685232 C2545.3965054389337,1300.9109794173219 2470.450962831897,1375.8565220243586 2378.1876760830983,1375.8565220243586 C2285.9243893342996,1375.8565220243586 2210.978846727263,1300.9109794173219 2210.978846727263,1208.6476926685232 C2210.978846727263,1116.3844059197245 2285.9243893342996,1041.4388633126878 2378.1876760830983,1041.4388633126878 Z" fill="#ffffff" stroke="#ffffff" stroke-width="2"/>
	</g>
</g></g></svg>